<svg width="70" height="70" viewBox="0 0 70 70" fill="none" xmlns="http://www.w3.org/2000/svg">
<g id="icon/social/group_24px">
<path id="icon/social/group_24px_2" fill-rule="evenodd" clip-rule="evenodd" d="M32.054 23.3335C32.054 28.1752 28.1748 32.0835 23.3332 32.0835C18.4915 32.0835 14.5832 28.1752 14.5832 23.3335C14.5832 18.4918 18.4915 14.5835 23.3332 14.5835C28.1748 14.5835 32.054 18.4918 32.054 23.3335ZM55.3873 23.3335C55.3873 28.1752 51.5082 32.0835 46.6665 32.0835C41.8248 32.0835 37.9165 28.1752 37.9165 23.3335C37.9165 18.4918 41.8248 14.5835 46.6665 14.5835C51.5082 14.5835 55.3873 18.4918 55.3873 23.3335ZM23.3332 37.9168C16.5373 37.9168 2.9165 41.3293 2.9165 48.1252V52.5002C2.9165 54.1043 4.229 55.4168 5.83317 55.4168H40.8332C42.4373 55.4168 43.7498 54.1043 43.7498 52.5002V48.1252C43.7498 41.3293 30.129 37.9168 23.3332 37.9168ZM43.8373 38.0627C44.8582 37.9752 45.8207 37.9168 46.6665 37.9168C53.4623 37.9168 67.0832 41.3293 67.0832 48.1252V52.5002C67.0832 54.1043 65.7707 55.4168 64.1665 55.4168H49.0582C49.379 54.5127 49.5832 53.521 49.5832 52.5002V48.1252C49.5832 43.8377 47.279 40.6002 43.954 38.1793C43.9452 38.1705 43.9363 38.159 43.9267 38.1464C43.9045 38.1175 43.878 38.083 43.8373 38.0627Z" fill="#6D7D8B"/>
</g>
</svg>
