<svg width="70" height="71" viewBox="0 0 70 71" fill="none" xmlns="http://www.w3.org/2000/svg">
<g id="icon/social/group_add_24px">
<path id="icon/social/group_add_24px_2" fill-rule="evenodd" clip-rule="evenodd" d="M52.5 33.5747C57.3417 33.5747 61.2208 29.6664 61.2208 24.8247C61.2208 19.983 57.3417 16.0747 52.5 16.0747C51.5667 16.0747 50.6625 16.2205 49.8458 16.483C51.5083 18.8455 52.4708 21.7039 52.4708 24.8247C52.4708 27.9455 51.4792 30.7747 49.8458 33.1664C50.6625 33.4289 51.5667 33.5747 52.5 33.5747ZM20.4167 30.658H14.5833V24.8247C14.5833 23.2205 13.2708 21.908 11.6667 21.908C10.0625 21.908 8.75 23.2205 8.75 24.8247V30.658H2.91667C1.3125 30.658 0 31.9705 0 33.5747C0 35.1789 1.3125 36.4914 2.91667 36.4914H8.75V42.3247C8.75 43.9289 10.0625 45.2414 11.6667 45.2414C13.2708 45.2414 14.5833 43.9289 14.5833 42.3247V36.4914H20.4167C22.0208 36.4914 23.3333 35.1789 23.3333 33.5747C23.3333 31.9705 22.0208 30.658 20.4167 30.658ZM46.6375 24.8247C46.6375 29.6664 42.7583 33.5747 37.9167 33.5747C33.075 33.5747 29.1667 29.6664 29.1667 24.8247C29.1667 19.983 33.075 16.0747 37.9167 16.0747C42.7583 16.0747 46.6375 19.983 46.6375 24.8247ZM37.9167 39.408C32.0833 39.408 20.4167 42.3247 20.4167 48.158V51.0747C20.4167 52.6789 21.7292 53.9914 23.3333 53.9914H52.5C54.1042 53.9914 55.4167 52.6789 55.4167 51.0747V48.158C55.4167 42.3247 43.75 39.408 37.9167 39.408ZM61.25 48.158C61.25 44.7164 59.6458 42.0039 57.225 39.8747C63.0875 40.8955 70 43.6664 70 48.158V52.533C70 53.3497 69.3583 53.9914 68.5417 53.9914H61.1042C61.1917 53.5247 61.25 53.0289 61.25 52.533V48.158Z" fill="#6D7D8B"/>
</g>
</svg>
