<svg width="32" height="33" viewBox="0 0 32 33" fill="none" xmlns="http://www.w3.org/2000/svg">
<circle cx="16.151" cy="16.728" r="15.7871" fill="#3C5B66"/>
<path fill-rule="evenodd" clip-rule="evenodd" d="M21.5761 16.6013C21.5761 16.841 21.555 17.0665 21.5268 17.2921L23.0142 18.4553C23.1482 18.561 23.1834 18.7514 23.0988 18.9065L21.6889 21.3456C21.6255 21.4584 21.5056 21.5218 21.3858 21.5218C21.3435 21.5218 21.3012 21.5148 21.2589 21.5007L19.5036 20.7957C19.137 21.0707 18.7422 21.3103 18.3122 21.4866L18.0443 23.3547C18.0232 23.5239 17.8751 23.6508 17.6989 23.6508H14.8791C14.7029 23.6508 14.5548 23.5239 14.5337 23.3547L14.2658 21.4866C13.8358 21.3103 13.441 21.0777 13.0744 20.7957L11.3191 21.5007C11.2838 21.5148 11.2416 21.5218 11.1993 21.5218C11.0724 21.5218 10.9525 21.4584 10.8891 21.3456L9.47917 18.9065C9.39458 18.7514 9.42983 18.561 9.56377 18.4553L11.0512 17.2921C11.023 17.0665 11.0019 16.8339 11.0019 16.6013C11.0019 16.3686 11.023 16.136 11.0512 15.9104L9.56377 14.7472C9.42983 14.6415 9.38753 14.4512 9.47917 14.2961L10.8891 11.8569C10.9525 11.7442 11.0724 11.6807 11.1922 11.6807C11.2345 11.6807 11.2768 11.6878 11.3191 11.7019L13.0744 12.4068C13.441 12.1319 13.8358 11.8922 14.2658 11.716L14.5337 9.84784C14.5548 9.67865 14.7029 9.55176 14.8791 9.55176H17.6989C17.8751 9.55176 18.0232 9.67865 18.0443 9.84784L18.3122 11.716C18.7422 11.8922 19.137 12.1248 19.5036 12.4068L21.2589 11.7019C21.2941 11.6878 21.3364 11.6807 21.3787 11.6807C21.5056 11.6807 21.6255 11.7442 21.6889 11.8569L23.0988 14.2961C23.1834 14.4512 23.1482 14.6415 23.0142 14.7472L21.5268 15.9104C21.555 16.136 21.5761 16.3616 21.5761 16.6013ZM20.1662 16.6015C20.1662 16.4534 20.1592 16.3054 20.131 16.0869L20.0323 15.2903L20.6597 14.7968L21.414 14.1976L20.9205 13.3446L20.0252 13.7041L19.278 14.0073L18.6365 13.5138C18.3545 13.3023 18.0725 13.1402 17.7694 13.0133L17.0222 12.7102L16.9094 11.9136L16.7754 10.9619H15.7955L15.6546 11.9136L15.5418 12.7102L14.7945 13.0133C14.5055 13.1331 14.2165 13.3023 13.9133 13.5279L13.2789 14.0073L12.5457 13.7112L11.6504 13.3517L11.157 14.2047L11.9183 14.7968L12.5457 15.2903L12.447 16.0869C12.4259 16.2984 12.4118 16.4605 12.4118 16.6015C12.4118 16.7425 12.4259 16.9046 12.447 17.1231L12.5457 17.9197L11.9183 18.4132L11.157 19.0054L11.6504 19.8584L12.5457 19.4988L13.293 19.1957L13.9345 19.6892C14.2165 19.9007 14.4984 20.0628 14.8016 20.1897L15.5488 20.4928L15.6616 21.2894L15.7955 22.2411H16.7825L16.9235 21.2894L17.0363 20.4928L17.7835 20.1897C18.0725 20.0698 18.3616 19.9007 18.6647 19.6751L19.2991 19.1957L20.0323 19.4918L20.9276 19.8513L21.4211 18.9983L20.6597 18.4062L20.0323 17.9127L20.131 17.1161C20.1521 16.9046 20.1662 16.7495 20.1662 16.6015ZM16.289 13.7816C14.7311 13.7816 13.4692 15.0435 13.4692 16.6014C13.4692 18.1593 14.7311 19.4212 16.289 19.4212C17.847 19.4212 19.1088 18.1593 19.1088 16.6014C19.1088 15.0435 17.847 13.7816 16.289 13.7816ZM14.8791 16.6015C14.8791 17.3769 15.5136 18.0114 16.289 18.0114C17.0644 18.0114 17.6989 17.3769 17.6989 16.6015C17.6989 15.826 17.0644 15.1916 16.289 15.1916C15.5136 15.1916 14.8791 15.826 14.8791 16.6015Z" fill="white"/>
</svg>
