<svg width="32" height="32" viewBox="0 0 32 32" fill="none" xmlns="http://www.w3.org/2000/svg">
<circle cx="16.151" cy="16.0908" r="15.7871" fill="#3C5B66"/>
<path fill-rule="evenodd" clip-rule="evenodd" d="M11.9334 9.93066H20.6416C21.3258 9.93066 21.8856 10.4905 21.8856 11.1747V19.8829C21.8856 20.5671 21.3258 21.1269 20.6416 21.1269H18.1535L16.2875 22.993L14.4214 21.1269H11.9334C11.2429 21.1269 10.6893 20.5671 10.6893 19.8829V11.1747C10.6893 10.4905 11.2429 9.93066 11.9334 9.93066ZM17.6373 19.8829H20.6416V11.1747H11.9334V19.8829H14.9377L15.2985 20.2437L16.2875 21.2327L17.2703 20.2499L17.6373 19.8829ZM16.2875 15.5288C17.3138 15.5288 18.1535 14.6891 18.1535 13.6628C18.1535 12.6365 17.3138 11.7967 16.2875 11.7967C15.2612 11.7967 14.4215 12.6365 14.4215 13.6628C14.4215 14.6891 15.2612 15.5288 16.2875 15.5288ZM16.9095 13.6628C16.9095 13.3207 16.6296 13.0408 16.2875 13.0408C15.9454 13.0408 15.6655 13.3207 15.6655 13.6628C15.6655 14.0049 15.9454 14.2848 16.2875 14.2848C16.6296 14.2848 16.9095 14.0049 16.9095 13.6628ZM20.0196 18.3777C20.0196 16.8226 17.5502 16.1508 16.2875 16.1508C15.0248 16.1508 12.5554 16.8226 12.5554 18.3777V19.2609H20.0196V18.3777ZM16.2875 17.3949C15.4851 17.3949 14.5583 17.6997 14.098 18.0169H18.477C18.0167 17.6997 17.0899 17.3949 16.2875 17.3949Z" fill="white"/>
</svg>
