<svg width="65" height="66" viewBox="0 0 65 66" fill="none" xmlns="http://www.w3.org/2000/svg">
<g id="icon/social/person_add_24px">
<path id="icon/social/person_add_24px_2" fill-rule="evenodd" clip-rule="evenodd" d="M40.6252 32.5334C46.6106 32.5334 51.4585 27.6854 51.4585 21.7C51.4585 15.7146 46.6106 10.8667 40.6252 10.8667C34.6397 10.8667 29.7918 15.7146 29.7918 21.7C29.7918 27.6854 34.6397 32.5334 40.6252 32.5334ZM16.2502 27.1167V21.7C16.2502 20.2104 15.0314 18.9917 13.5418 18.9917C12.0522 18.9917 10.8335 20.2104 10.8335 21.7V27.1167H5.41683C3.92725 27.1167 2.7085 28.3354 2.7085 29.825C2.7085 31.3146 3.92725 32.5334 5.41683 32.5334H10.8335V37.95C10.8335 39.4396 12.0522 40.6584 13.5418 40.6584C15.0314 40.6584 16.2502 39.4396 16.2502 37.95V32.5334H21.6668C23.1564 32.5334 24.3752 31.3146 24.3752 29.825C24.3752 28.3354 23.1564 27.1167 21.6668 27.1167H16.2502ZM18.9585 48.7834C18.9585 41.5792 33.3939 37.95 40.6252 37.95C47.8564 37.95 62.2918 41.5792 62.2918 48.7834V51.4917C62.2918 52.9813 61.0731 54.2 59.5835 54.2H21.6668C20.1772 54.2 18.9585 52.9813 18.9585 51.4917V48.7834Z" fill="#6D7D8B"/>
</g>
</svg>
